<svg width="220" height="220" viewBox="0 0 220 220" fill="none" xmlns="http://www.w3.org/2000/svg">
<rect width="220" height="220" rx="32" fill="white"/>
<path d="M112.374 70.0825C112.374 77.0959 116.236 83.5558 122.48 86.987L155.497 105.109C157.335 106.115 159.636 106.176 161.608 105.069C162.953 104.324 163.918 103.046 164.411 101.617L165.017 99.8968C165.346 98.9711 165.51 98.0051 165.51 97.019V70.7466C165.51 69.7304 165.284 68.7241 164.853 67.8085L164.802 67.6978C164.144 66.3092 163.087 65.1219 161.69 64.4376C159.615 63.4213 157.264 63.532 155.374 64.5886L136.95 74.8822C135.009 75.9689 132.678 76.1702 130.572 75.4256L129.823 75.1639C127.933 74.4998 126.372 73.0509 125.787 71.1692C124.914 68.3619 126.136 65.474 128.57 64.0653L150.352 51.4071C151.78 50.582 152.755 49.0525 152.765 47.2212C152.776 46.0339 152.272 44.9069 151.492 44.0013C151.091 43.5384 150.609 43.1561 150.064 42.8542L120.241 26.6541C118.803 25.8793 117.047 25.7686 115.465 26.4729C113.524 27.3282 112.374 29.3306 112.374 31.4135V70.0825Z" fill="#1B1C1E"/>
<path d="M108.626 70.0825C108.626 77.0958 104.764 83.5558 98.5203 86.987L65.5028 105.109C63.6748 106.115 61.3846 106.176 59.4128 105.089C58.0675 104.344 57.0918 103.087 56.5989 101.648L55.993 99.9069C55.6746 98.9811 55.5 98.0152 55.5 97.0391V70.7667C55.5 69.7504 55.7259 68.7442 56.1573 67.8286L56.2086 67.7179C56.8659 66.3293 57.9237 65.142 59.3101 64.4577C61.3846 63.4414 63.7364 63.5521 65.626 64.6087L84.0501 74.9023C85.9911 75.989 88.3223 76.1902 90.4276 75.4456L91.1773 75.184C93.067 74.5199 94.628 73.071 95.2134 71.1893C96.0863 68.382 94.8642 65.4941 92.4303 64.0854L70.648 51.4272C69.354 50.6826 68.44 49.3644 68.2551 47.7645C68.1011 46.4061 68.6043 45.0578 69.508 44.0214C69.9086 43.5585 70.3912 43.1661 70.9253 42.8743L100.759 26.654C102.197 25.8792 103.953 25.7685 105.535 26.4729C107.476 27.3282 108.626 29.3306 108.626 31.4134V70.0825Z" fill="#1B1C1E"/>
<path d="M100.595 89.6434C106.736 86.0512 114.387 85.9808 120.59 89.4824L153.402 107.957C155.035 108.882 156.196 110.502 156.463 112.444C156.699 114.175 156.083 115.916 154.932 117.244L153.731 118.643C153.084 119.387 152.324 120.021 151.461 120.524L128.436 133.998C127.553 134.521 126.557 134.843 125.53 134.954L125.386 134.974C123.835 135.135 122.244 134.853 120.939 134.028C118.988 132.8 117.889 130.768 117.848 128.645L117.417 107.876C117.376 105.683 116.349 103.62 114.623 102.231L114.007 101.738C112.456 100.49 110.392 99.9169 108.441 100.39C105.535 101.094 103.635 103.6 103.645 106.367L103.717 131.19C103.717 133.032 102.649 134.853 100.615 135.688C99.7321 136.05 98.7462 136.101 97.8014 135.94C97.1955 135.839 96.6203 135.638 96.0863 135.336L66.7146 118.613C66.1909 118.321 65.6979 117.958 65.3077 117.516C63.0586 114.99 63.7569 111.237 66.5503 109.607L100.626 89.6636L100.595 89.6434Z" fill="#1B1C1E"/>
<path d="M59.28 184C58.5333 184 57.9333 183.693 57.48 183.08L48.24 170.92L51.88 167.2L61.44 179.84C61.8133 180.347 62 180.893 62 181.48C62 182.227 61.72 182.84 61.16 183.32C60.6 183.773 59.9733 184 59.28 184ZM59.76 155.8C60.4 155.8 60.92 156.067 61.32 156.6C61.7467 157.107 61.96 157.627 61.96 158.16C61.96 158.72 61.72 159.24 61.24 159.72L44.48 175.76L44.28 170.04L57.8 156.72C58.4133 156.107 59.0667 155.8 59.76 155.8ZM42.48 184C41.7333 184 41.1333 183.773 40.68 183.32C40.2267 182.84 40 182.253 40 181.56V158.44C40 157.747 40.24 157.173 40.72 156.72C41.2 156.24 41.8133 156 42.56 156C43.3067 156 43.8933 156.24 44.32 156.72C44.7733 157.173 45 157.747 45 158.44V181.56C45 182.253 44.7733 182.84 44.32 183.32C43.8667 183.773 43.2533 184 42.48 184Z" fill="#1B1C1E"/>
<path d="M83.3309 162.2C84.0243 162.2 84.5976 162.427 85.0509 162.88C85.5043 163.333 85.7309 163.92 85.7309 164.64V181.56C85.7309 182.253 85.5043 182.84 85.0509 183.32C84.5976 183.773 84.0243 184 83.3309 184C82.6376 184 82.0643 183.773 81.6109 183.32C81.1576 182.84 80.9309 182.253 80.9309 181.56V179.6L81.8109 179.96C81.8109 180.307 81.6243 180.733 81.2509 181.24C80.8776 181.72 80.3709 182.2 79.7309 182.68C79.0909 183.16 78.3309 183.573 77.4509 183.92C76.5976 184.24 75.6643 184.4 74.6509 184.4C72.8109 184.4 71.1443 183.933 69.6509 183C68.1576 182.04 66.9709 180.733 66.0909 179.08C65.2376 177.4 64.8109 175.48 64.8109 173.32C64.8109 171.133 65.2376 169.213 66.0909 167.56C66.9709 165.88 68.1443 164.573 69.6109 163.64C71.0776 162.68 72.7043 162.2 74.4909 162.2C75.6376 162.2 76.6909 162.373 77.6509 162.72C78.6109 163.067 79.4376 163.507 80.1309 164.04C80.8509 164.573 81.3976 165.12 81.7709 165.68C82.1709 166.213 82.3709 166.667 82.3709 167.04L80.9309 167.56V164.64C80.9309 163.947 81.1576 163.373 81.6109 162.92C82.0643 162.44 82.6376 162.2 83.3309 162.2ZM75.2509 180C76.4243 180 77.4509 179.707 78.3309 179.12C79.2109 178.533 79.8909 177.733 80.3709 176.72C80.8776 175.707 81.1309 174.573 81.1309 173.32C81.1309 172.04 80.8776 170.893 80.3709 169.88C79.8909 168.867 79.2109 168.067 78.3309 167.48C77.4509 166.893 76.4243 166.6 75.2509 166.6C74.1043 166.6 73.0909 166.893 72.2109 167.48C71.3309 168.067 70.6376 168.867 70.1309 169.88C69.6509 170.893 69.4109 172.04 69.4109 173.32C69.4109 174.573 69.6509 175.707 70.1309 176.72C70.6376 177.733 71.3309 178.533 72.2109 179.12C73.0909 179.707 74.1043 180 75.2509 180Z" fill="#1B1C1E"/>
<path d="M100.448 162.2C101.968 162.2 103.288 162.36 104.408 162.68C105.555 163 106.435 163.453 107.048 164.04C107.688 164.6 108.008 165.28 108.008 166.08C108.008 166.613 107.848 167.12 107.528 167.6C107.208 168.053 106.741 168.28 106.128 168.28C105.701 168.28 105.341 168.227 105.048 168.12C104.781 167.987 104.541 167.827 104.328 167.64C104.115 167.453 103.861 167.28 103.568 167.12C103.301 166.96 102.888 166.84 102.328 166.76C101.795 166.653 101.395 166.6 101.128 166.6C99.7681 166.6 98.6081 166.893 97.6481 167.48C96.7148 168.067 95.9948 168.867 95.4881 169.88C94.9815 170.867 94.7281 172.013 94.7281 173.32C94.7281 174.6 94.9815 175.747 95.4881 176.76C96.0215 177.747 96.7415 178.533 97.6481 179.12C98.5815 179.707 99.6481 180 100.848 180C101.515 180 102.088 179.96 102.568 179.88C103.048 179.8 103.448 179.68 103.768 179.52C104.141 179.307 104.475 179.08 104.768 178.84C105.061 178.6 105.501 178.48 106.088 178.48C106.781 178.48 107.315 178.707 107.688 179.16C108.061 179.587 108.248 180.12 108.248 180.76C108.248 181.427 107.875 182.04 107.128 182.6C106.381 183.133 105.395 183.573 104.168 183.92C102.968 184.24 101.661 184.4 100.248 184.4C98.1415 184.4 96.3148 183.92 94.7681 182.96C93.2215 181.973 92.0215 180.64 91.1681 178.96C90.3415 177.28 89.9281 175.4 89.9281 173.32C89.9281 171.133 90.3681 169.213 91.2481 167.56C92.1548 165.88 93.3948 164.573 94.9681 163.64C96.5681 162.68 98.3948 162.2 100.448 162.2Z" fill="#1B1C1E"/>
<path d="M122.949 162.2C124.869 162.2 126.323 162.613 127.309 163.44C128.323 164.267 129.016 165.373 129.389 166.76C129.763 168.12 129.949 169.64 129.949 171.32V181.56C129.949 182.253 129.723 182.84 129.269 183.32C128.816 183.773 128.243 184 127.549 184C126.856 184 126.283 183.773 125.829 183.32C125.376 182.84 125.149 182.253 125.149 181.56V171.32C125.149 170.44 125.043 169.653 124.829 168.96C124.616 168.24 124.229 167.667 123.669 167.24C123.109 166.813 122.309 166.6 121.269 166.6C120.256 166.6 119.389 166.813 118.669 167.24C117.949 167.667 117.403 168.24 117.029 168.96C116.683 169.653 116.509 170.44 116.509 171.32V181.56C116.509 182.253 116.283 182.84 115.829 183.32C115.376 183.773 114.803 184 114.109 184C113.416 184 112.843 183.773 112.389 183.32C111.936 182.84 111.709 182.253 111.709 181.56V156.84C111.709 156.147 111.936 155.573 112.389 155.12C112.843 154.64 113.416 154.4 114.109 154.4C114.803 154.4 115.376 154.64 115.829 155.12C116.283 155.573 116.509 156.147 116.509 156.84V166.76L115.909 166.64C116.149 166.187 116.483 165.707 116.909 165.2C117.336 164.667 117.856 164.173 118.469 163.72C119.083 163.267 119.763 162.907 120.509 162.64C121.256 162.347 122.069 162.2 122.949 162.2Z" fill="#1B1C1E"/>
<path d="M139.667 181.56C139.667 182.253 139.44 182.84 138.987 183.32C138.534 183.773 137.96 184 137.267 184C136.574 184 136 183.773 135.547 183.32C135.094 182.84 134.867 182.253 134.867 181.56V165.04C134.867 164.347 135.094 163.773 135.547 163.32C136 162.84 136.574 162.6 137.267 162.6C137.96 162.6 138.534 162.84 138.987 163.32C139.44 163.773 139.667 164.347 139.667 165.04V181.56ZM137.227 160C136.32 160 135.68 159.853 135.307 159.56C134.934 159.267 134.747 158.747 134.747 158V157.24C134.747 156.467 134.947 155.947 135.347 155.68C135.774 155.387 136.414 155.24 137.267 155.24C138.2 155.24 138.854 155.387 139.227 155.68C139.6 155.973 139.787 156.493 139.787 157.24V158C139.787 158.773 139.587 159.307 139.187 159.6C138.787 159.867 138.134 160 137.227 160Z" fill="#1B1C1E"/>
<path d="M155.6 154.4C156.187 154.4 156.76 154.48 157.32 154.64C157.88 154.8 158.347 155.067 158.72 155.44C159.093 155.787 159.28 156.253 159.28 156.84C159.28 157.507 159.08 158.04 158.68 158.44C158.307 158.813 157.867 159 157.36 159C157.12 159 156.76 158.947 156.28 158.84C155.8 158.707 155.333 158.64 154.88 158.64C154.213 158.64 153.693 158.787 153.32 159.08C152.973 159.373 152.733 159.72 152.6 160.12C152.467 160.493 152.4 160.827 152.4 161.12V181.56C152.4 182.253 152.173 182.84 151.72 183.32C151.267 183.773 150.693 184 150 184C149.307 184 148.733 183.773 148.28 183.32C147.827 182.84 147.6 182.253 147.6 181.56V161.16C147.6 159.267 148.267 157.667 149.6 156.36C150.933 155.053 152.933 154.4 155.6 154.4ZM156.04 163C156.68 163 157.213 163.213 157.64 163.64C158.067 164.04 158.28 164.56 158.28 165.2C158.28 165.84 158.067 166.373 157.64 166.8C157.213 167.2 156.68 167.4 156.04 167.4H145.44C144.8 167.4 144.267 167.2 143.84 166.8C143.413 166.373 143.2 165.84 143.2 165.2C143.2 164.56 143.413 164.04 143.84 163.64C144.267 163.213 144.8 163 145.44 163H156.04Z" fill="#1B1C1E"/>
<path d="M181.61 173.32C181.61 175.507 181.117 177.44 180.13 179.12C179.17 180.773 177.863 182.067 176.21 183C174.583 183.933 172.757 184.4 170.73 184.4C168.703 184.4 166.863 183.933 165.21 183C163.583 182.067 162.277 180.773 161.29 179.12C160.33 177.44 159.85 175.507 159.85 173.32C159.85 171.133 160.33 169.213 161.29 167.56C162.277 165.88 163.583 164.573 165.21 163.64C166.863 162.68 168.703 162.2 170.73 162.2C172.757 162.2 174.583 162.68 176.21 163.64C177.863 164.573 179.17 165.88 180.13 167.56C181.117 169.213 181.61 171.133 181.61 173.32ZM176.81 173.32C176.81 171.96 176.53 170.787 175.97 169.8C175.437 168.787 174.703 168 173.77 167.44C172.863 166.88 171.85 166.6 170.73 166.6C169.61 166.6 168.583 166.88 167.65 167.44C166.743 168 166.01 168.787 165.45 169.8C164.917 170.787 164.65 171.96 164.65 173.32C164.65 174.653 164.917 175.827 165.45 176.84C166.01 177.827 166.743 178.6 167.65 179.16C168.583 179.72 169.61 180 170.73 180C171.85 180 172.863 179.72 173.77 179.16C174.703 178.6 175.437 177.827 175.97 176.84C176.53 175.827 176.81 174.653 176.81 173.32Z" fill="#1B1C1E"/>
</svg>
