<svg width="44" height="44" viewBox="0 0 44 44" fill="none" xmlns="http://www.w3.org/2000/svg">
<path d="M30.25 13C30.6642 13 31 13.3358 31 13.75L31 18.75C31 19.1642 30.6642 19.5 30.25 19.5C29.8358 19.5 29.5 19.1642 29.5 18.75L29.5 15.5607L23.5303 21.5303C23.2374 21.8232 22.7626 21.8232 22.4697 21.5303L20.25 19.3107L14.2803 25.2803C13.9874 25.5732 13.5126 25.5732 13.2197 25.2803C12.9268 24.9874 12.9268 24.5126 13.2197 24.2197L19.7197 17.7197C20.0126 17.4268 20.4874 17.4268 20.7803 17.7197L23 19.9393L28.4394 14.5L25.25 14.5C24.8358 14.5 24.5 14.1642 24.5 13.75C24.5 13.3358 24.8358 13 25.25 13L30.25 13ZM24 23C22.8954 23 22 23.8954 22 25V31C22 32.1046 22.8954 33 24 33H31C32.1046 33 33 32.1046 33 31V25C33 23.8954 32.1046 23 31 23H24ZM24 26.5C24 26.2239 24.2239 26 24.5 26H30.5C30.7761 26 31 26.2239 31 26.5C31 26.7761 30.7761 27 30.5 27H24.5C24.2239 27 24 26.7761 24 26.5ZM24 29.5C24 29.2239 24.2239 29 24.5 29H30.5C30.7761 29 31 29.2239 31 29.5C31 29.7761 30.7761 30 30.5 30H24.5C24.2239 30 24 29.7761 24 29.5Z" fill="#1B1C1E"/>
</svg>
