<svg width="32" height="32" viewBox="0 0 32 32" fill="none" xmlns="http://www.w3.org/2000/svg">
<path d="M9.17683 9.1185C9.32953 8.98915 9.54464 8.9633 9.72363 9.05279L22.7236 15.5528C22.893 15.6375 23 15.8106 23 16C23 16.1894 22.893 16.3625 22.7236 16.4472L9.72363 22.9472C9.54464 23.0367 9.32953 23.0109 9.17683 22.8815C9.02414 22.7522 8.96328 22.5442 9.02213 22.353L10.9769 16L9.02213 9.64705C8.96328 9.45578 9.02414 9.24785 9.17683 9.1185ZM11.8693 16.5L10.3215 21.5302L21.382 16L10.3215 10.4698L11.8693 15.5H17.5C17.7761 15.5 18 15.7239 18 16C18 16.2761 17.7761 16.5 17.5 16.5H11.8693Z" fill="#242424"/>
</svg>
