<svg width="160" height="160" viewBox="0 0 160 160" fill="none" xmlns="http://www.w3.org/2000/svg">
<rect width="160" height="160" rx="28" fill="white"/>
<g clip-path="url(#clip0_3_9)">
<path d="M81.8742 30.4839V69.0825C81.8742 76.0959 85.7357 82.5558 91.9797 85.987L124.997 104.109C126.835 105.115 129.136 105.176 131.108 104.069C132.453 103.324 133.418 102.046 133.911 100.617L134.517 98.8968C134.846 97.9711 135.01 97.0051 135.01 96.019V69.7466C135.01 68.7303 134.784 67.7241 134.353 66.8085L134.302 66.6978C133.644 65.3092 132.587 64.1219 131.19 63.4376C129.115 62.4213 126.764 62.532 124.874 63.5886L106.45 73.8822C104.509 74.9689 102.178 75.1702 100.072 74.4256L99.3227 74.1639C97.433 73.4998 95.872 72.0509 95.2866 70.1692C94.4137 67.3619 95.6358 64.474 98.0697 63.0653L119.852 50.4071C121.28 49.582 122.255 48.0525 122.265 46.2212C122.276 45.0339 121.772 43.9069 120.992 43.0013C120.591 42.5384 120.109 42.1561 119.564 41.8542L89.7409 25.6541C88.3031 24.8793 86.547 24.7686 84.9655 25.4729C83.0245 26.3282 81.8742 28.3306 81.8742 30.4135V30.4839Z" fill="#1B1C1E"/>
<path d="M78.1258 30.4839V69.0825C78.1258 76.0958 74.2643 82.5558 68.0203 85.987L35.0028 104.109C33.1748 105.115 30.8846 105.176 28.9128 104.089C27.5675 103.344 26.5918 102.087 26.0989 100.648L25.493 98.9069C25.1746 97.9811 25 97.0152 25 96.0391V69.7667C25 68.7504 25.2259 67.7442 25.6573 66.8286L25.7086 66.7179C26.3659 65.3293 27.4237 64.142 28.8101 63.4577C30.8846 62.4414 33.2364 62.5521 35.126 63.6087L53.5501 73.9023C55.4911 74.989 57.8223 75.1903 59.9276 74.4456L60.6773 74.184C62.567 73.5199 64.128 72.071 64.7134 70.1893C65.5863 67.382 64.3642 64.4941 61.9303 63.0854L40.148 50.4272C38.854 49.6826 37.94 48.3644 37.7551 46.7645C37.6011 45.4061 38.1043 44.0578 39.008 43.0214C39.4086 42.5585 39.8912 42.1661 40.4253 41.8743L70.2591 25.654C71.6969 24.8792 73.453 24.7685 75.0345 25.4729C76.9755 26.3282 78.1258 28.3306 78.1258 30.4134V30.4839Z" fill="#1B1C1E"/>
<path d="M70.0948 88.6434C76.2361 85.0512 83.8871 84.9808 90.0901 88.4824L122.902 106.957C124.535 107.882 125.696 109.502 125.963 111.444C126.199 113.175 125.583 114.916 124.432 116.244L123.231 117.643C122.584 118.387 121.824 119.021 120.961 119.524L97.9362 132.998C97.053 133.521 96.0569 133.843 95.0299 133.954L94.8861 133.974C93.3354 134.135 91.7435 133.853 90.4393 133.028C88.488 131.8 87.3891 129.768 87.3481 127.645L86.9167 106.876C86.8756 104.683 85.8487 102.62 84.1233 101.231L83.5071 100.738C81.9564 99.4905 79.8922 98.9169 77.9409 99.3899C75.0345 100.094 73.1346 102.6 73.1449 105.367L73.2168 130.19C73.2168 132.032 72.1487 133.853 70.1153 134.688C69.2321 135.05 68.2462 135.101 67.3014 134.94C66.6955 134.839 66.1203 134.638 65.5863 134.336L36.2146 117.613C35.6909 117.321 35.1979 116.958 34.8077 116.516C32.5586 113.99 33.2569 110.237 36.0503 108.607L70.1256 88.6636L70.0948 88.6434Z" fill="#1B1C1E"/>
</g>
<defs>
<clipPath id="clip0_3_9">
<rect width="110" height="110" fill="white" transform="translate(25 25)"/>
</clipPath>
</defs>
</svg>
